Video

Codec ID/Hint : XviD
Duration : 1h 23mn
Bit rate : 1 049 Kbps
Width : 720 pixels
Height : 304 pixels
Display aspect ratio : 2.35:1
Frame rate : 23.976 fps
Color space : YUV
Chroma subsampling : 4:2:0
Bit depth : 8 bits
Scan type : Progressive
Bits/(Pixel*Frame) : 0.200
Stream size : 630 MiB (90%)
Writing library : XviD 57


Mode extension : MS Stereo
Codec ID : 55
Codec ID/Hint : MP3
Duration : 1h 23mn
Bit rate mode : Variable
Bit rate : 104 Kbps
Nominal bit rate : 112 Kbps
Channel(s) : 2 channels
Sampling rate : 48.0 KHz
Stream size : 62.2 MiB (9%)
Alignment : Aligned on interleaves
Interleave, duration : 24 ms (0.58 video frame)
Interleave, preload duration : 555 ms
Writing library : LAME3.97 
Encoding settings : -m j -V 4 -q 2 -lowpass 16 --abr 112


IMDB 
http://www.imdb.com/title/tt1415284/



Plot:

An ice cold tale of misguided ambition and savage revenge. Set in the bowels of an iconic derelict Los Angeles high-rise, we follow Lauren and her real-estate investing fiancé as they discover first hand what happens when a madman leads not with emotion, but rather chilling rationality. The Man in question brings a heaping helping of sanity and jet-black humor to the crazy table. The result is a wonderfully off-kilter horror/thriller that never goes where we expect, but rather draws the audience deeper into a surprising world that has dark corners even in the brightest rooms.






================================== 
http://thepiratebay.org/user/hiest
==================================






Screens:
 
http://leetleech.org/images/64613023275151500149.jpg